<svg id="Layer_1" enable-background="new 0 0 256 256" height="512" viewBox="0 0 256 256" width="512" xmlns="http://www.w3.org/2000/svg"><g><path d="m198.247 88.799h-140.494c-1.381 0-2.5-1.119-2.5-2.5s1.119-2.5 2.5-2.5h140.494c1.381 0 2.5 1.119 2.5 2.5s-1.119 2.5-2.5 2.5z" fill="#ebe7f2"/><path d="m198.247 179.156c-18 0-32.645-14.645-32.645-32.645s14.645-32.645 32.645-32.645c18.001 0 32.646 14.645 32.646 32.645s-14.645 32.645-32.646 32.645zm0-60.289c-15.243 0-27.645 12.401-27.645 27.645s12.401 27.645 27.645 27.645 27.646-12.401 27.646-27.645-12.402-27.645-27.646-27.645z" fill="#a58bc9"/><g fill="#846f75"><path d="m198.247 184.156c-1.381 0-2.5 1.119-2.5 2.5v33.206h-135.494v-183.724h135.494v70.229c0 1.381 1.119 2.5 2.5 2.5s2.5-1.119 2.5-2.5v-72.729c0-1.381-1.119-2.5-2.5-2.5h-140.494c-1.381 0-2.5 1.119-2.5 2.5v188.725c0 1.381 1.119 2.5 2.5 2.5h140.494c1.381 0 2.5-1.119 2.5-2.5v-35.706c0-1.382-1.119-2.501-2.5-2.501z"/><path d="m137.821 60.955c0-5.415-4.406-9.821-9.821-9.821s-9.821 4.406-9.821 9.821 4.406 9.821 9.821 9.821 9.821-4.406 9.821-9.821zm-14.642 0c0-2.658 2.163-4.821 4.821-4.821s4.821 2.163 4.821 4.821-2.163 4.821-4.821 4.821-4.821-2.163-4.821-4.821z"/><path d="m168.39 110.56h-40.39c-1.381 0-2.5 1.119-2.5 2.5s1.119 2.5 2.5 2.5h40.39c1.381 0 2.5-1.119 2.5-2.5s-1.119-2.5-2.5-2.5z"/><path d="m87.61 115.56h21.82c1.381 0 2.5-1.119 2.5-2.5s-1.119-2.5-2.5-2.5h-21.82c-1.381 0-2.5 1.119-2.5 2.5s1.119 2.5 2.5 2.5z"/><path d="m158.39 149.012c1.381 0 2.5-1.119 2.5-2.5s-1.119-2.5-2.5-2.5h-14.646c-1.381 0-2.5 1.119-2.5 2.5s1.119 2.5 2.5 2.5z"/><path d="m127.673 146.512c0-1.381-1.119-2.5-2.5-2.5h-37.563c-1.381 0-2.5 1.119-2.5 2.5s1.119 2.5 2.5 2.5h37.563c1.381 0 2.5-1.119 2.5-2.5z"/><path d="m133.969 179.964c0 1.381 1.119 2.5 2.5 2.5h31.921c1.381 0 2.5-1.119 2.5-2.5s-1.119-2.5-2.5-2.5h-31.921c-1.381 0-2.5 1.119-2.5 2.5z"/><path d="m87.61 177.464c-1.381 0-2.5 1.119-2.5 2.5s1.119 2.5 2.5 2.5h28.993c1.381 0 2.5-1.119 2.5-2.5s-1.119-2.5-2.5-2.5z"/><path d="m211.234 144.012h-10.487v-10.486c0-1.381-1.119-2.5-2.5-2.5s-2.5 1.119-2.5 2.5v10.486h-10.486c-1.381 0-2.5 1.119-2.5 2.5s1.119 2.5 2.5 2.5h10.486v10.486c0 1.381 1.119 2.5 2.5 2.5s2.5-1.119 2.5-2.5v-10.486h10.487c1.381 0 2.5-1.119 2.5-2.5s-1.119-2.5-2.5-2.5z"/></g></g></svg>